<svg width="200" height="200" viewBox="0 0 200 200" fill="none" xmlns="http://www.w3.org/2000/svg">
<path d="M168.898 0.370445C169.968 0.81556 171.073 1.01339 172.214 0.963933C173.667 0.898858 174.407 0.867619 174.434 0.870222C179.222 1.09408 183.78 2.54005 188.109 5.20814C190.341 6.58252 192.165 8.05192 193.58 9.61633C193.83 9.89225 194.248 10.4636 194.835 11.3304C195.188 11.851 195.614 12.4185 196.114 13.0328C196.231 13.1785 196.332 13.3321 196.419 13.4935C197.028 14.6623 197.564 15.8518 198.028 17.0622C198.463 18.1867 198.743 19.4427 198.868 20.8301C199.218 24.7034 199.365 28.5818 199.307 32.4655C199.25 36.5106 199.234 39.1136 199.259 40.2746C199.343 44.5773 199.446 48.8801 199.568 53.1829C199.701 57.9177 199.608 66.4673 199.287 78.8316C199.233 80.9635 199.214 82.7465 199.23 84.1808C199.263 86.6667 199.279 87.9161 199.279 87.9291C199.222 104.682 199.259 115.478 199.389 120.317C199.481 123.753 199.53 126.681 199.536 129.102C199.536 129.86 199.552 132.463 199.584 136.911C199.612 140.428 199.479 143.942 199.185 147.453C199.036 149.226 199.043 151.928 199.206 155.559C199.23 156.054 199.221 156.815 199.177 157.843C199.147 158.528 199.15 159.294 199.185 160.143C199.267 162.074 199.233 165.133 199.083 169.319C199.005 171.578 198.671 174.051 198.081 176.737C197.81 177.555 197.423 178.002 196.92 178.08C196.44 178.153 196.213 178.467 196.24 179.021C196.245 179.151 196.207 179.279 196.13 179.388C195.231 180.646 194.631 181.977 194.329 183.383C194.213 183.929 193.919 184.175 193.45 184.121C193.347 184.108 193.227 184.044 193.111 183.941C192.881 183.73 192.606 183.604 192.289 183.562C192.225 183.553 192.166 183.528 192.121 183.491C192.077 183.454 192.048 183.406 192.04 183.355C191.994 183.043 192.063 182.762 192.248 182.512C192.283 182.465 192.302 182.409 192.304 182.351C192.305 182.293 192.289 182.237 192.256 182.188C191.946 181.727 191.929 181.197 192.203 180.599C192.312 180.361 192.35 180.099 192.313 179.841C192.123 178.498 191.582 177.501 190.692 176.85C190.648 176.818 190.614 176.773 190.591 176.719C190.569 176.666 190.56 176.605 190.565 176.542C190.582 176.321 190.499 176.174 190.317 176.101C190.263 176.08 190.218 176.045 190.188 176.001C190.159 175.958 190.147 175.909 190.154 175.863C190.238 175.259 190.055 175.125 189.604 175.46C189.064 175.861 188.591 175.856 188.186 175.445C188.148 175.405 188.097 175.378 188.042 175.371C187.988 175.363 187.933 175.374 187.889 175.402C186.906 176.029 186.201 176.871 185.775 177.928C185.729 178.04 185.672 178.13 185.604 178.198C185.332 178.46 185.203 178.419 185.217 178.073C185.222 177.974 185.253 177.868 185.31 177.756C186.084 176.205 186.576 174.929 186.785 173.93C186.948 173.157 186.82 173.008 186.402 173.485C186.337 173.56 186.299 173.685 186.296 173.832C186.294 174.056 186.182 174.211 185.962 174.297C186.106 173.602 186.257 172.908 186.414 172.216C186.58 171.487 186.674 170.785 186.695 170.111C186.744 168.513 186.769 166.915 186.769 165.317C186.769 154.157 186.766 142.998 186.761 131.839C186.761 129.635 186.776 127.03 186.805 124.026C186.89 115.988 186.89 107.951 186.805 99.916C186.784 97.667 186.79 95.064 186.826 92.1069C186.886 87.1118 186.872 81.3448 186.785 74.8061C186.644 64.0686 186.607 48.1981 186.675 27.1944C186.681 25.6639 186.641 24.7528 186.557 24.4613C185.09 19.4141 181.83 15.9039 176.776 13.9308C175.407 13.3972 173.983 13.1018 172.503 13.0445C169.923 12.9404 167.343 12.8909 164.763 12.8961C147.311 12.9326 129.865 12.9443 112.425 12.9313C112.24 11.9005 111.496 11.5087 110.192 11.756C110.151 11.7641 110.113 11.7915 110.086 11.8334C110.059 11.8753 110.043 11.9293 110.042 11.9864C110.042 12.0853 109.983 12.1438 109.866 12.1621C109.676 12.1933 109.549 12.2245 109.483 12.2558C109.204 12.3885 108.993 12.4549 108.852 12.4549C108.431 12.4523 107.663 12.3716 106.546 12.2128C106.522 12.2076 106.299 12.1569 105.878 12.0605C105.362 11.9382 104.879 12.0306 104.428 12.3378C104.314 12.4141 104.188 12.4563 104.066 12.4588C102.387 12.4848 100.72 12.3781 99.063 12.1386C97.8491 11.9642 96.6297 11.9096 95.4049 11.9746C94.2154 12.0371 93.0286 12.0046 91.8445 11.877C91.2416 11.812 90.3522 11.959 89.1763 12.3182C89.0405 12.3599 88.9007 12.3716 88.7567 12.3534C88.3928 12.3013 88.0207 12.2675 87.6405 12.2519C87.3146 12.2363 86.9534 12.1764 86.5569 12.0723C85.6798 11.8432 84.8134 11.8393 83.958 12.0605C83.26 12.2428 82.7128 12.3261 82.3163 12.3104C81.5124 12.2818 80.9543 12.2324 80.642 12.1621C79.1999 11.8341 77.7456 11.7547 76.2791 11.9239C75.0951 12.0593 73.6951 12.0215 72.0792 11.8107C71.5578 11.7404 71.1273 11.8992 70.7878 12.287C70.5869 12.5187 70.1714 12.5746 69.5413 12.4549C68.9058 12.3326 67.8399 12.3404 66.3435 12.4783C65.2273 12.5799 64.1668 12.6033 63.162 12.5486C61.6792 12.4679 60.453 12.4445 59.4835 12.4783C55.513 12.6267 51.5412 12.6853 47.568 12.654C47.3589 12.6514 47.1416 12.6267 46.9162 12.5799C46.7044 12.5356 46.4912 12.4953 46.2767 12.4588C45.9834 12.4068 45.6575 12.4015 45.299 12.4432C43.952 12.5994 42.6022 12.6033 41.2498 12.4549C41.1303 12.4419 41.0094 12.395 40.8872 12.3144C40.4663 12.041 40.0033 11.9187 39.4981 11.9473C39.3849 11.9548 39.26 12.0084 39.1437 12.0996C38.8613 12.3209 38.5449 12.4471 38.1946 12.4783C37.5265 12.5356 37.1775 12.5668 37.1476 12.572C36.3003 12.736 35.5562 12.7295 34.9153 12.5525C34.516 12.4406 34.3124 12.5655 34.3042 12.9274C31.1729 12.8336 28.593 12.9365 26.5643 13.2358C24.4324 13.5508 22.3277 14.402 20.2501 15.7894C18.417 16.8904 16.9152 18.5694 15.7447 20.8262C14.3813 23.4448 13.716 25.958 13.7486 28.3658L13.8015 37.4672C13.8026 37.5193 13.825 37.569 13.8638 37.6055C13.9027 37.642 13.9549 37.6624 14.0093 37.6624C40.2273 37.79 66.444 37.7887 92.6593 37.6585C99.4107 37.6247 105.563 39.1071 111.117 42.1058C117.246 45.4142 122.189 50.1074 125.945 56.1854C125.755 56.1802 125.64 56.2583 125.599 56.4197C125.572 56.516 125.596 56.6306 125.672 56.7633C127.733 60.4101 129.082 64.2821 129.717 68.3792C129.791 68.84 129.892 69.3619 130.023 69.9449C130.137 70.4629 130.232 70.9861 130.308 71.5146C130.36 71.8555 130.506 71.9466 130.748 71.7879C130.914 75.0859 130.995 78.3852 130.992 81.6858C130.99 85.3404 130.996 87.8601 131.013 89.2449C131.045 91.7673 131.062 94.2896 131.062 96.8119C131.059 98.6834 131.196 100.154 131.473 101.224C131.851 102.674 132.415 104.068 133.168 105.406C135.981 110.416 140.227 113.45 145.906 114.507C146.74 114.663 147.842 114.774 149.214 114.839C150.756 114.914 151.866 114.951 152.542 114.948C159.035 114.912 165.527 114.937 172.018 115.023C174.139 115.051 175.927 115.609 177.383 116.698C178.32 117.398 178.992 118.232 179.4 119.2C179.82 120.197 179.966 121.285 179.835 122.465C179.58 124.781 178.505 126.379 176.609 127.259C175.811 127.629 174.655 127.842 173.142 127.9C171.953 127.944 170.763 127.956 169.574 127.935C166.234 127.877 164.451 127.849 164.225 127.849C153.93 127.903 147.727 127.866 145.617 127.736C141.638 127.491 137.913 126.442 134.443 124.589C126.714 120.46 121.627 114.452 119.183 106.565C118.634 104.79 118.245 102.757 118.014 100.466C117.805 98.4023 117.696 96.3316 117.688 94.2544C117.658 88.1087 117.581 81.963 117.456 75.8173C117.418 73.99 117.282 72.4933 117.048 71.3271C116.763 69.9007 116.365 68.4404 115.855 66.9463C114.964 64.3485 113.648 62.0617 111.907 60.086C107.796 55.4215 102.731 52.4007 96.7126 51.0237C94.969 50.6228 92.6579 50.3898 89.7792 50.3248C87.4464 50.2727 85.1135 50.248 82.7807 50.2506C61.5298 50.2818 40.2789 50.2428 19.028 50.1334C16.8147 50.123 15.116 50.1803 13.9319 50.3052C13.877 50.3119 13.8264 50.3381 13.7897 50.3791C13.753 50.42 13.7326 50.4729 13.7323 50.5278C13.7757 73.7258 13.7472 96.9238 13.6467 120.122C13.6359 122.714 13.6399 125.317 13.659 127.931C13.811 149 13.8355 163.088 13.7323 170.197C13.6508 175.838 15.8574 180.323 20.352 183.652C20.1754 183.715 20.098 183.82 20.1198 183.968C20.1333 184.057 20.1944 184.148 20.3031 184.242C22.1226 185.78 24.0739 186.76 26.1569 187.182C26.5507 187.262 26.844 187.38 27.0368 187.533C27.0893 187.575 27.1469 187.606 27.2059 187.625C27.2649 187.644 27.3239 187.65 27.379 187.643C28.335 187.536 29.2828 187.594 30.2224 187.818C31.0263 188.011 31.8437 188.093 32.6748 188.064C32.9681 188.054 33.2491 188.094 33.518 188.185C33.8656 188.302 34.1304 188.366 34.3124 188.377C37.3459 188.541 40.8397 188.63 44.7939 188.646C58.1908 188.698 70.5896 188.608 81.9904 188.377C82.5661 188.366 83.3619 188.41 84.3776 188.509C85.176 188.59 85.9758 188.615 86.7769 188.584C89.0093 188.5 90.2015 188.46 90.3536 188.462C94.6717 188.53 102.094 188.559 112.62 188.548C119.684 188.541 124.591 188.516 127.342 188.474C127.994 188.464 128.837 188.503 129.872 188.591C130.719 188.662 131.567 188.686 132.414 188.666C134.918 188.608 136.184 188.58 136.211 188.58C142.824 188.689 148.667 188.703 153.74 188.623C154.006 188.617 154.247 188.517 154.465 188.322C154.514 188.279 154.569 188.245 154.628 188.223C154.687 188.201 154.748 188.191 154.807 188.193C156.678 188.271 158.542 188.194 160.4 187.963C163.042 187.898 165.685 187.833 168.327 187.767C169.563 187.736 171.096 187.541 172.927 187.182C176.511 186.573 179.533 184.993 181.99 182.442C182.053 182.377 182.115 182.292 182.178 182.188C182.349 181.904 182.466 181.869 182.528 182.083C182.557 182.191 182.537 182.323 182.471 182.453C181.825 183.69 181.09 184.558 180.267 185.058C179.534 185.505 179.431 186.079 179.958 186.78C180.021 186.864 180.054 186.964 180.054 187.067C180.054 187.17 180.021 187.271 179.958 187.354C179.71 187.674 179.614 187.993 179.668 188.31C179.704 188.521 179.894 188.75 180.239 188.997C180.825 189.424 181.218 189.974 181.416 190.645C181.468 190.819 181.584 190.97 181.742 191.069C181.9 191.168 182.089 191.209 182.276 191.184C183.161 191.067 184.038 191.08 184.907 191.223C184.982 191.235 185.055 191.233 185.118 191.219C185.181 191.205 185.232 191.178 185.266 191.141C185.331 191.063 185.348 190.972 185.319 190.868C185.301 190.804 185.297 190.74 185.309 190.686C185.321 190.631 185.347 190.588 185.384 190.563L186.475 189.813C186.517 189.786 186.571 189.774 186.631 189.779C186.692 189.783 186.755 189.805 186.814 189.841C187.023 189.966 187.214 189.923 187.388 189.712C187.487 189.592 187.596 189.51 187.689 189.485C188.034 189.397 188.271 189.501 188.398 189.798C188.423 189.863 188.435 190.022 188.435 190.274C188.435 190.485 188.518 190.64 188.683 190.739C188.731 190.767 188.767 190.809 188.786 190.856C188.804 190.903 188.804 190.953 188.785 190.997C188.584 191.449 188.534 191.956 188.635 192.515C187.491 193.398 186.332 194.259 185.156 195.1C184.99 195.222 184.729 195.345 184.373 195.467C184.132 195.553 183.867 195.679 183.579 195.846C183.264 196.026 183.21 196.261 183.416 196.553C179.804 198.466 176.166 199.54 172.503 199.774C169.521 199.964 164.87 200.034 158.551 199.985L156.005 199.887L159.63 199.848C159.709 199.848 159.712 199.843 159.638 199.832C159.03 199.744 159.033 199.684 159.646 199.653C159.755 199.648 159.854 199.589 159.944 199.477C159.961 199.457 159.972 199.434 159.978 199.408C159.983 199.383 159.983 199.357 159.976 199.331C159.969 199.306 159.957 199.282 159.939 199.261C159.922 199.24 159.9 199.223 159.875 199.212C159.576 199.066 159.202 198.993 158.754 198.993C131.939 198.946 113.166 198.946 102.436 198.993C87.5319 199.058 74.8954 199.059 64.5266 198.997C62.4681 198.984 59.7537 198.986 56.3834 199.005C52.8475 199.02 49.3129 199.003 45.7797 198.954C43.2676 198.917 40.9823 198.928 38.9237 198.985C36.6343 199.05 34.3463 199.119 32.0596 199.192C29.8544 199.262 27.6465 199.379 25.4359 199.543C23.4615 199.395 21.5401 198.968 19.6717 198.263C9.82428 194.551 3.60925 187.758 1.02656 177.885C0.608328 176.282 0.334039 173.556 0.203683 169.709C0.255282 170.245 0.456241 170.49 0.806575 170.443C0.859893 170.436 0.908103 170.406 0.941398 170.361C0.974692 170.315 0.990573 170.257 0.985817 170.197C0.833734 168.393 0.754982 166.588 0.74955 164.782C0.741403 161.239 0.73733 159.447 0.73733 159.405C0.653141 155.186 0.632775 150.965 0.676228 146.743C0.722396 142.128 0.731891 137.511 0.704734 132.893C0.699302 132.131 0.605607 131.303 0.423651 130.41C0.257989 129.588 0.116778 128.761 0 127.931L0.0244409 45.1552C0.46168 44.9339 0.685728 44.5109 0.696591 43.8862C0.753622 40.8771 0.741403 37.8694 0.65993 34.8629C0.624625 33.525 0.628698 32.187 0.67215 30.8491C0.718318 29.5085 0.750903 28.168 0.769914 26.8274C0.770898 26.7575 0.755204 26.691 0.725134 26.6376C0.695065 26.5841 0.652209 26.5467 0.602892 26.5307L0.252564 26.4174C0.67894 19.9984 3.00907 14.3447 7.24295 9.45625C9.91255 6.37168 13.162 4.02507 16.9912 2.41641C17.07 2.69754 17.2723 2.78473 17.5982 2.67801C21.0255 1.53529 24.5573 0.939203 28.1937 0.889746C37.5305 0.764802 46.866 0.760898 56.2001 0.878033C59.2852 0.917078 62.001 0.932694 64.3474 0.924885C74.1242 0.893649 83.9023 0.842891 93.6818 0.77261C96.4003 0.751786 99.1133 0.751786 101.821 0.77261C120.66 0.90276 133.426 0.924885 140.117 0.838986C144.778 0.779117 148.703 0.762195 151.894 0.788225C154.643 0.811652 156.906 0.812958 158.685 0.792133C160.947 0.7635 163.211 0.746579 165.476 0.741373C165.707 0.741373 165.944 0.583891 166.189 0.268927L166.392 0.237697C167.267 0.0554862 168.102 0.0997326 168.898 0.370445Z" fill="white"/>
<path d="M132.174 0.335309L166.189 0.268927C165.944 0.583891 165.707 0.741373 165.476 0.741373C163.211 0.746579 160.947 0.7635 158.685 0.792133C156.906 0.812958 154.643 0.811652 151.894 0.788225C148.703 0.762195 144.778 0.779117 140.117 0.838986C133.426 0.924885 120.66 0.90276 101.821 0.77261C99.1133 0.751786 96.4003 0.751786 93.6818 0.77261C83.9023 0.842891 74.1242 0.893649 64.3474 0.924885C62.001 0.932694 59.2852 0.917078 56.2001 0.878033C46.866 0.760898 37.5305 0.764802 28.1937 0.889746C24.5573 0.939203 21.0255 1.53529 17.5982 2.67801C17.2723 2.78473 17.07 2.69754 16.9912 2.41641C19.4707 1.38822 21.9488 0.764804 24.4256 0.546152C26.5575 0.358735 29.0017 0.270235 31.7582 0.280648C51.1433 0.363944 70.5285 0.361339 89.9136 0.272837C92.5371 0.259822 95.2515 0.263726 98.0569 0.28455C109.431 0.370449 120.803 0.38737 132.174 0.335309Z" fill="white"/>
<path d="M168.898 0.370445C171.426 0.167411 173.919 0.18433 176.377 0.421204C179.242 0.697123 181.982 1.40645 184.598 2.54917C190.746 5.23547 195.209 9.52913 197.988 15.4301C199.117 17.8327 199.75 20.3537 199.886 22.9932C199.94 24.0344 199.967 25.0769 199.967 26.1207C199.989 71.1189 200 116.118 200 161.119C200 163.871 199.802 167.352 199.405 171.564C199.101 174.44 198.782 176.515 198.448 177.788C196.821 183.985 193.497 189.167 188.476 193.331C186.898 194.563 185.211 195.636 183.416 196.553C183.21 196.261 183.264 196.026 183.579 195.846C183.867 195.679 184.132 195.553 184.373 195.467C184.729 195.345 184.99 195.222 185.156 195.1C186.332 194.259 187.491 193.398 188.635 192.515C189.829 191.38 190.906 190.153 191.865 188.833C191.928 188.742 192.038 188.668 192.175 188.623C192.405 188.547 192.574 188.408 192.68 188.205C192.824 187.926 192.905 187.775 192.924 187.752C193.47 187.005 194.055 186.286 194.68 185.597C194.979 185.266 195.326 184.643 195.723 183.726C195.769 183.617 195.786 183.492 195.776 183.351C195.727 182.831 195.848 182.383 196.138 182.008C196.581 181.441 196.805 181.151 196.81 181.138C197.025 180.724 197.192 180.294 197.311 179.849C197.404 179.5 197.557 179.072 197.772 178.565C198.013 177.987 198.117 177.378 198.081 176.737C198.671 174.051 199.005 171.578 199.083 169.319C199.233 165.133 199.267 162.074 199.185 160.143C199.15 159.294 199.147 158.528 199.177 157.843C199.221 156.815 199.23 156.054 199.206 155.559C199.043 151.928 199.036 149.226 199.185 147.453C199.479 143.942 199.612 140.428 199.584 136.911C199.552 132.463 199.536 129.86 199.536 129.102C199.53 126.681 199.481 123.753 199.389 120.317C199.259 115.478 199.222 104.682 199.279 87.9291C199.279 87.9161 199.263 86.6667 199.23 84.1808C199.214 82.7465 199.233 80.9635 199.287 78.8316C199.608 66.4673 199.701 57.9177 199.568 53.1829C199.446 48.8801 199.343 44.5773 199.259 40.2746C199.234 39.1136 199.25 36.5106 199.307 32.4655C199.365 28.5818 199.218 24.7034 198.868 20.8301C198.743 19.4427 198.463 18.1867 198.028 17.0622C197.564 15.8518 197.028 14.6623 196.419 13.4935C196.332 13.3321 196.231 13.1785 196.114 13.0328C195.614 12.4185 195.188 11.851 194.835 11.3304C194.248 10.4636 193.83 9.89225 193.58 9.61633C192.165 8.05192 190.341 6.58252 188.109 5.20814C183.78 2.54005 179.222 1.09408 174.434 0.870222C174.407 0.867619 173.667 0.898858 172.214 0.963933C171.073 1.01339 169.968 0.81556 168.898 0.370445Z" fill="white"/>
<path d="M112.425 12.9313L34.3042 12.9274C34.3124 12.5655 34.516 12.4406 34.9153 12.5525C35.5562 12.7295 36.3003 12.736 37.1476 12.572C37.1775 12.5668 37.5265 12.5356 38.1946 12.4783C38.5449 12.4471 38.8613 12.3209 39.1437 12.0996C39.26 12.0084 39.3849 11.9548 39.4981 11.9473C40.0033 11.9187 40.4663 12.041 40.8872 12.3144C41.0094 12.395 41.1303 12.4419 41.2498 12.4549C42.6022 12.6033 43.952 12.5994 45.299 12.4432C45.6575 12.4015 45.9834 12.4068 46.2767 12.4588C46.4912 12.4953 46.7044 12.5356 46.9162 12.5799C47.1416 12.6267 47.3589 12.6514 47.568 12.654C51.5412 12.6853 55.513 12.6267 59.4835 12.4783C60.453 12.4445 61.6792 12.4679 63.162 12.5486C64.1668 12.6033 65.2273 12.5799 66.3435 12.4783C67.8399 12.3404 68.9058 12.3326 69.5413 12.4549C70.1714 12.5746 70.5869 12.5187 70.7878 12.287C71.1273 11.8992 71.5578 11.7404 72.0792 11.8107C73.6951 12.0215 75.0951 12.0593 76.2791 11.9239C77.7456 11.7547 79.1999 11.8341 80.642 12.1621C80.9543 12.2324 81.5124 12.2818 82.3163 12.3104C82.7128 12.3261 83.26 12.2428 83.958 12.0605C84.8134 11.8393 85.6798 11.8432 86.5569 12.0723C86.9534 12.1764 87.3146 12.2363 87.6405 12.2519C88.0207 12.2675 88.3928 12.3013 88.7567 12.3534C88.9007 12.3716 89.0405 12.3599 89.1763 12.3182C90.3522 11.959 91.2416 11.812 91.8445 11.877C93.0286 12.0046 94.2154 12.0371 95.4049 11.9746C96.6297 11.9096 97.8491 11.9642 99.063 12.1386C100.72 12.3781 102.387 12.4848 104.066 12.4588C104.188 12.4563 104.314 12.4141 104.428 12.3378C104.879 12.0306 105.362 11.9382 105.878 12.0605C106.299 12.1569 106.522 12.2076 106.546 12.2128C107.663 12.3716 108.431 12.4523 108.852 12.4549C108.993 12.4549 109.204 12.3885 109.483 12.2558C109.549 12.2245 109.676 12.1933 109.866 12.1621C109.983 12.1438 110.042 12.0853 110.042 11.9864C110.043 11.9293 110.059 11.8753 110.086 11.8334C110.113 11.7915 110.151 11.7641 110.192 11.756C111.496 11.5087 112.24 11.9005 112.425 12.9313Z" fill="white"/>
<path d="M0.252564 26.4174L0.602892 26.5307C0.652209 26.5467 0.695065 26.5841 0.725134 26.6376C0.755204 26.691 0.770898 26.7575 0.769914 26.8274C0.750903 28.168 0.718318 29.5085 0.67215 30.8491C0.628698 32.187 0.624625 33.525 0.65993 34.8629C0.741403 37.8694 0.753622 40.8771 0.696591 43.8862C0.685728 44.5109 0.46168 44.9339 0.0244409 45.1552L0.252564 26.4174Z" fill="white"/>
<path d="M125.945 56.1854C128.865 60.9984 130.465 66.1992 130.748 71.7879C130.506 71.9466 130.36 71.8555 130.308 71.5146C130.232 70.9861 130.137 70.4629 130.023 69.9449C129.892 69.3619 129.791 68.84 129.717 68.3792C129.082 64.2821 127.733 60.4101 125.672 56.7633C125.596 56.6306 125.572 56.516 125.599 56.4197C125.64 56.2583 125.755 56.1802 125.945 56.1854Z" fill="white"/>
<path d="M24.4215 84.0246C22.7024 82.455 22.033 80.5366 22.4132 78.2694C22.8342 75.7679 24.1853 74.0473 26.4665 73.1076C27.3138 72.7588 28.4925 72.5805 30.0024 72.5727C36.6642 72.5362 43.326 72.5727 49.9878 72.682C52.5243 72.7236 54.6711 72.7978 56.4282 72.9046C58.742 73.0477 60.8536 73.3848 62.7627 73.9158C68.0639 75.3917 72.606 77.9986 76.3891 81.7366C80.0337 85.3339 82.3855 89.5846 83.4447 94.4887C83.8086 96.1728 84.0326 98.7628 84.1168 102.259C84.2255 106.811 84.254 111.367 84.2024 115.924C84.1671 118.887 84.235 121.846 84.4061 124.803C84.8867 133.156 88.6304 139.69 95.6371 144.404C99.6184 147.08 103.991 148.643 108.754 149.093C109.477 149.161 112.19 149.208 116.893 149.234C134.005 149.325 151.116 149.346 168.226 149.296C171.202 149.289 173.307 149.423 174.54 149.698C175.42 149.896 176.479 150.541 177.717 151.631C179.083 152.834 179.682 154.337 179.514 156.141C179.31 158.32 178.365 159.984 176.678 161.135C175.91 161.658 174.946 161.969 173.786 162.068C172.912 162.141 171.873 162.183 170.67 162.193C154.693 162.328 144.645 162.361 140.525 162.291C136.709 162.225 133.464 162.202 130.789 162.22C125.452 162.257 122.776 162.275 122.759 162.275C119.617 162.257 116.474 162.233 113.329 162.205C113.305 162.205 112.357 162.212 110.486 162.228C106.311 162.265 102.276 161.658 98.3787 160.409C95.9209 159.62 93.4713 158.511 91.0298 157.082C85.1447 153.641 80.2917 149.095 76.4706 143.443C74.0943 139.929 72.5653 136.19 71.8836 132.226C71.3405 129.061 71.0689 125.644 71.0689 121.976C71.0689 116.268 71.0445 110.561 70.9956 104.855C70.9739 102.078 70.7634 99.9745 70.3642 98.5455C69.4571 95.2761 67.7285 92.5065 65.1784 90.2367C63.3127 88.5786 61.1564 87.3669 58.7095 86.6016C57.0773 86.0914 55.3949 85.7829 53.6622 85.6762C53.4205 85.6632 51.7164 85.6645 48.5498 85.6801C38.2842 85.7296 31.1254 85.6918 27.0735 85.5669C26.6037 85.5513 26.1121 85.3625 25.5988 85.0007C25.2811 84.7743 24.8886 84.4489 24.4215 84.0246Z" fill="white"/>
<path d="M0 127.931C0.116778 128.761 0.257989 129.588 0.423651 130.41C0.605607 131.303 0.699302 132.131 0.704734 132.893C0.731891 137.511 0.722396 142.128 0.676228 146.743C0.632775 150.965 0.653141 155.186 0.73733 159.405C0.73733 159.447 0.741403 161.239 0.74955 164.782C0.754982 166.588 0.833734 168.393 0.985817 170.197C0.990573 170.257 0.974692 170.315 0.941398 170.361C0.908103 170.406 0.859893 170.436 0.806575 170.443C0.456241 170.49 0.255282 170.245 0.203683 169.709L0 127.931Z" fill="white"/>
<path d="M198.081 176.737C198.117 177.378 198.013 177.987 197.772 178.565C197.557 179.072 197.404 179.5 197.311 179.849C197.192 180.294 197.025 180.724 196.81 181.138C196.805 181.151 196.581 181.441 196.138 182.008C195.848 182.383 195.727 182.831 195.776 183.351C195.786 183.492 195.769 183.617 195.723 183.726C195.326 184.643 194.979 185.266 194.68 185.597C194.055 186.286 193.47 187.005 192.924 187.752C192.905 187.775 192.824 187.926 192.68 188.205C192.574 188.408 192.405 188.547 192.175 188.623C192.038 188.668 191.928 188.742 191.865 188.833C190.906 190.153 189.829 191.38 188.635 192.515C188.534 191.956 188.584 191.449 188.785 190.997C188.804 190.953 188.804 190.903 188.786 190.856C188.767 190.809 188.731 190.767 188.683 190.739C188.518 190.64 188.435 190.485 188.435 190.274C188.435 190.022 188.423 189.863 188.398 189.798C188.271 189.501 188.034 189.397 187.689 189.485C187.596 189.51 187.487 189.592 187.388 189.712C187.214 189.923 187.023 189.966 186.814 189.841C186.755 189.805 186.692 189.783 186.631 189.779C186.571 189.774 186.517 189.786 186.475 189.813L185.384 190.563C185.347 190.588 185.321 190.631 185.309 190.686C185.297 190.74 185.301 190.804 185.319 190.868C185.348 190.972 185.331 191.063 185.266 191.141C185.232 191.178 185.181 191.205 185.118 191.219C185.055 191.233 184.982 191.235 184.907 191.223C184.038 191.08 183.161 191.067 182.276 191.184C182.089 191.209 181.9 191.168 181.742 191.069C181.584 190.97 181.468 190.819 181.416 190.645C181.218 189.974 180.825 189.424 180.239 188.997C179.894 188.75 179.704 188.521 179.668 188.31C179.614 187.993 179.71 187.674 179.958 187.354C180.021 187.271 180.054 187.17 180.054 187.067C180.054 186.964 180.021 186.864 179.958 186.78C179.431 186.079 179.534 185.505 180.267 185.058C181.09 184.558 181.825 183.69 182.471 182.453C182.537 182.323 182.557 182.191 182.528 182.083C182.466 181.869 182.349 181.904 182.178 182.188C182.115 182.292 182.053 182.377 181.99 182.442C179.533 184.993 176.511 186.573 172.927 187.182C172.927 186.82 172.683 186.662 172.197 186.709C173.724 186.478 175.327 185.992 177.008 185.253C178.019 184.81 178.9 184.272 179.652 183.636C180.122 183.241 180.844 182.534 181.819 181.516C183.791 179.455 185.172 177.048 185.962 174.297C186.182 174.211 186.294 174.056 186.296 173.832C186.299 173.685 186.337 173.56 186.402 173.485C186.82 173.008 186.948 173.157 186.785 173.93C186.576 174.929 186.084 176.205 185.31 177.756C185.253 177.868 185.222 177.974 185.217 178.073C185.203 178.419 185.332 178.46 185.604 178.198C185.672 178.13 185.729 178.04 185.775 177.928C186.201 176.871 186.906 176.029 187.889 175.402C187.933 175.374 187.988 175.363 188.042 175.371C188.097 175.378 188.148 175.405 188.186 175.445C188.591 175.856 189.064 175.861 189.604 175.46C190.055 175.125 190.238 175.259 190.154 175.863C190.147 175.909 190.159 175.958 190.188 176.001C190.218 176.045 190.263 176.08 190.317 176.101C190.499 176.174 190.582 176.321 190.565 176.542C190.56 176.605 190.569 176.666 190.591 176.719C190.614 176.773 190.648 176.818 190.692 176.85C191.582 177.501 192.123 178.498 192.313 179.841C192.35 180.099 192.312 180.361 192.203 180.599C191.929 181.197 191.946 181.727 192.256 182.188C192.289 182.237 192.305 182.293 192.304 182.351C192.302 182.409 192.283 182.465 192.248 182.512C192.063 182.762 191.994 183.043 192.04 183.355C192.048 183.406 192.077 183.454 192.121 183.491C192.166 183.528 192.225 183.553 192.289 183.562C192.606 183.604 192.881 183.73 193.111 183.941C193.227 184.044 193.347 184.108 193.45 184.121C193.919 184.175 194.213 183.929 194.329 183.383C194.631 181.977 195.231 180.646 196.13 179.388C196.207 179.279 196.245 179.151 196.24 179.021C196.213 178.467 196.44 178.153 196.92 178.08C197.423 178.002 197.81 177.555 198.081 176.737Z" fill="white"/>
<path d="M20.352 183.652C24.4147 186.484 29.003 187.649 34.1168 187.147C32.7752 187.344 32.6177 187.566 33.6443 187.81C33.7991 187.847 33.9688 187.866 34.1535 187.869C41.1031 187.934 48.0514 187.926 54.9984 187.846C57.9504 187.812 60.6675 187.804 63.1497 187.822C75.9655 187.908 88.7798 187.934 101.593 187.9C104.173 187.895 106.89 187.902 109.744 187.92C119.488 187.99 129.233 187.99 138.977 187.92C141.5 187.904 144.214 187.909 147.12 187.935C151.547 187.974 155.973 187.984 160.4 187.963C158.542 188.194 156.678 188.271 154.807 188.193C154.748 188.191 154.687 188.201 154.628 188.223C154.569 188.245 154.514 188.279 154.465 188.322C154.247 188.517 154.006 188.617 153.74 188.623C148.667 188.703 142.824 188.689 136.211 188.58C136.184 188.58 134.918 188.608 132.414 188.666C131.567 188.686 130.719 188.662 129.872 188.591C128.837 188.503 127.994 188.464 127.342 188.474C124.591 188.516 119.684 188.541 112.62 188.548C102.094 188.559 94.6717 188.53 90.3536 188.462C90.2015 188.46 89.0093 188.5 86.7769 188.584C85.9758 188.615 85.176 188.59 84.3776 188.509C83.3619 188.41 82.5661 188.366 81.9904 188.377C70.5896 188.608 58.1908 188.698 44.7939 188.646C40.8397 188.63 37.3459 188.541 34.3124 188.377C34.1304 188.366 33.8656 188.302 33.518 188.185C33.2491 188.094 32.9681 188.054 32.6748 188.064C31.8437 188.093 31.0263 188.011 30.2224 187.818C29.2828 187.594 28.335 187.536 27.379 187.643C27.3239 187.65 27.2649 187.644 27.2059 187.625C27.1469 187.606 27.0893 187.575 27.0368 187.533C26.844 187.38 26.5507 187.262 26.1569 187.182C24.0739 186.76 22.1226 185.78 20.3031 184.242C20.1944 184.148 20.1333 184.057 20.1198 183.968C20.098 183.82 20.1754 183.715 20.352 183.652Z" fill="white"/>
<path d="M172.197 186.709C172.683 186.662 172.927 186.82 172.927 187.182C171.096 187.541 169.563 187.736 168.327 187.767C165.685 187.833 163.042 187.898 160.4 187.963C155.973 187.984 151.547 187.974 147.12 187.935C144.214 187.909 141.5 187.904 138.977 187.92C129.233 187.99 119.488 187.99 109.744 187.92C106.89 187.902 104.173 187.895 101.593 187.9C88.7798 187.934 75.9655 187.908 63.1497 187.822C60.6675 187.804 57.9504 187.812 54.9984 187.846C48.0514 187.926 41.1031 187.934 34.1535 187.869C33.9688 187.866 33.7991 187.847 33.6443 187.81C32.6177 187.566 32.7752 187.344 34.1168 187.147C36.1917 187.238 38.2733 187.27 40.3617 187.244C43.9411 187.203 45.7417 187.182 45.7634 187.182C85.7015 187.187 125.64 187.194 165.578 187.201C167.799 187.201 170.006 187.037 172.197 186.709Z" fill="white"/>
<path d="M156.005 199.887L49.5804 199.887C43.2635 199.856 39.5294 199.851 38.3779 199.871C33.3836 199.963 29.0696 199.853 25.4359 199.543C27.6465 199.379 29.8544 199.262 32.0596 199.192C34.3463 199.119 36.6343 199.05 38.9237 198.985C40.9823 198.928 43.2676 198.917 45.7797 198.954C49.3129 199.003 52.8475 199.02 56.3834 199.005C59.7537 198.986 62.4681 198.984 64.5266 198.997C74.8954 199.059 87.5319 199.058 102.436 198.993C113.166 198.946 131.939 198.946 158.754 198.993C159.202 198.993 159.576 199.066 159.875 199.212C159.9 199.223 159.922 199.24 159.939 199.261C159.957 199.282 159.969 199.306 159.976 199.331C159.983 199.357 159.983 199.383 159.978 199.408C159.972 199.434 159.961 199.457 159.944 199.477C159.854 199.589 159.755 199.648 159.646 199.653C159.033 199.684 159.03 199.744 159.638 199.832C159.712 199.843 159.709 199.848 159.63 199.848L156.005 199.887Z" fill="white"/>
</svg>
